<svg height="64" viewBox="0 0 32 32" width="64" xmlns="http://www.w3.org/2000/svg"><path fill="slategray" d="m30.642445 15.769168s-.509974-.606818-.581212-1.37431c-.07132-.768081.285641-.500039.285641-.500039s-.143159-1.018101-.857513-1.893045c-.713854-.875028-1.481931-1.910644-1.821301-3.2857122-.339369-1.3749832-.963788-2.1780958-1.392501-2.7318614-.428799-.5537663-.607487-1.6431087-.857513-2.035528-.250017-.3932613-.28564-2.5625993-2.088826-3.55821633-1.803701-.99561708-5.089409.14745229-6.053704.82559633-.964457.6788182-1.839401 2.6431885-2.999986 3.4469749-1.160669.8031122-2.106939.8212173-3.035608 2.4106838-.928081 1.5886251-1.125048 2.4993574-1.08008 3.4281109 0 0-.6700608.08059-.7499748-.294399-.08059-.3749873.187536-1.63435.374987-2.0093378 0 0 .187537.161179.160674.3218516 0 0 .5625248-1.1519114.2143138-1.8481615 0 0 .187536.040007.281263.1337268 0 0 .227536-1.0848798.227536-1.794266 0-.7100601-.268126-1.2593631-.7368388-1.580709 0 0 .3487978-.4549877-.04001-.9504802 0 0-.17381-.3982302-.629388-.868796-.454984-.4706509-.8037816-.73877601-1.2724951-.72496571 0 0 .080668-.17439893.1613461-.28126139 0 0-.3887986.0455541-.5225243.22366173 0 0-.2143152-.12993627-.2543982-.43806069 0 0-.3749879.10686289-.4156625.3749876 0 0-.825596-.28126226-1.1780995.61616596 0 0 .1338099.053138.1738099.1468619 0 0-.1206736.2682095-.6425236.3081252-.5225243.040171-2.0225598 0-2.4774632.1605886-.4556611.1607572-.6431127.3218512-.6431127.5093871 0 0-.227536.107031-.3350719.6025245 0 0-.3562092.1738091-.3562092.4819344 0 .3081252.19562.218778.19562.218778s-.214399.6118707.5355768.6517864c0 0 .1206729.3082095.7637864.3082095.6425229 0 1.111321.106947 1.379362.5087132 0 0-.2143148.8037863-1.0581006 1.5399511 0 0 .187536.026951.3749876.013808 0 0-.7369224.6156605-.9244584 1.5131726 0 0 .2550724-.2543994.4019351-.2412621 0 0-.9237861 2.5580532.3618504 5.0894102 0 0 .1205893-.254399.1737257-.281261 0 0-.053138.857511.4687137 1.526981 0 0 .040593-.374988.2412621-.508881 0 0 .8026069 1.459361 1.6269401 2.115612.8237447.65625 2.0831063.964375 2.3643685 1.633844 0 0 .4419358-.493723.4419358-.815659 0 0 .120588.306778.08.628125 0 0 .495662-.24059.65625-.374483.160673-.134401.8575118-.616082.9512378.160672.09372.776335-.6874918 2.330012.02695 4.258676 0 0-.250019.351325-.250019.818187 0 .467534.356798.699449.356798.913764 0 .214399-.16059.607576-.16059 1.018185s.374989 1.066858.03562 2.53321c-.339367 1.466099-.481935 1.85936-.6788178 2.109381-.19621.250019-.964375.678649-.821217 1.393088 0 0-1.8031078.231914-1.7855934.856923.0181157.625008.9286764.819869 2.0175144.819869 1.0894268 0 1.3738038-.230567 1.4100138-.62366.03689-.392588-.250694-.464504 0-.696249.251283-.231916.518735-.500042.483113-1.481931-.03562-.982565.446315-1.893044.446315-1.893044s-.08943-.839492.196883-1.356963c.285557-.518061 1.053132-1.535572.535661-3.089419 0 0 .142483.05382.321177.07132 0 0-.303661-.856922.25002-1.892623.553766-1.035534.839407-3.143062.839407-3.143062s1.267535.107533 1.821216 0c0 0-1.214314 2.545085-1.089346 4.461286 0 0-.303745.306947-.303745.646313 0 .338694.178777.767408.48244 1.071238.303832.303157 1.303826.910565 1.856916 1.571193.553765.660798.928756 1.3925 1.089346 1.589383 0 0-.517475.339451-.374992.875027 0 0-.518057.160675-.464329.606903 0 0-.750061.01811-1.142569.357556-.393091.33861-.589303.785513-.232417.928082.357468.143072 1.67881.143072 2.124955.143072.446231 0 .96438-.339283 1.000003-.571198.03558-.232589-.160674-.803785-.160674-.803785s.268209.0357.374985-.285725c0 0 .500043 1.856918 1.267528 1.803107 0 0 .107456-.01743.124974-.178105 0 0 .357468.08885.536249-.08935.178106-.178777.606904-2.69624-.910566-2.732533 0 0 .106855-.25002-.178781-.428126-.28564-.17861 2.500033-3.696237 2.821212-3.999983 0 0-.393092-3.142469.39309-4.660696.7856-1.51755 1.428126-2.553756 1.428126-2.553756s.160667 3.375059 1.696326 5.964437c0 0 .285641.393178.214311.875028-.07124.481934-.267449.73187-.267449 1.339362 0 .606903.446229 2.214391.01741 3.964362-.08564.350651-.946182 1.392583-.642435 2.249337 0 0-.714277.411367-.714277.94686 0 .535661.321095.642607.553688.642607.231827 0 .356878-.231914.481845-.231914s.303748.339367.875027.339367c.571281 0 1.07124-.464419 1.07124-.73246 0-.267621-.464336-.71444-.464336-.71444s.303663-.285557.303663-.642439c0-.357557-.481852-.946186-.481852-1.696245 0-.750061.15621-2.206306.446229-2.839482.580039-1.268122.517559-2.276875.178781-2.544326 0 0 .178105-.812461.178105-1.670057 0-.856922-.660633-3.151817-.106943-5.463807 0 0 .660625-.964374.803783-2.482431 0 0 1.196291 2.428874.303157 4.124951-.89246 1.69633-.714271 1.678897-.731871 2.196284-.0181.518061.250018 1.232585.250018 1.232585l.813139-.821891s-.01004-.571282.383151-.981976c.393093-.410609.678733-1.52555.500045-1.833591 0 0 .196204.137514.285555.208672 0 0 .143158-.535577-.124967-1.321088-.000168-.000169.287321-.143411.599234.01718zm-10.723824 8.035753c-.33937.535577-1.374987 2.214307-1.374987 2.214307s-1.071907-.606818-1.410686-1.285636c-.339285-.678734-.62501-1.106859-.768083-1.214395 0 0 .437472-.588713.544424-1.213721 0 0 .19191.01508.299369.398735.648836-.816248 1.073172-1.698771 1.191903-2.631315 0 0 .160674.160673.303747.214399 0 0 .01749-.643113.250026-1.106858.231827-.464419.73187-1.053722.803698-1.946938h.321263s-.268124 2.000075 0 3.71434c.26745 1.714519.178106 2.321337-.160674 2.857082z"/></svg>